<svg width="361" height="323" viewBox="0 0 361 323" fill="none" xmlns="http://www.w3.org/2000/svg">
<rect y="88" width="18" height="18" fill="#5F5F5F" fill-opacity="0.12"/>
<rect y="44" width="18" height="19" fill="#5F5F5F" fill-opacity="0.12"/>
<rect y="174" width="19" height="18" fill="#5F5F5F" fill-opacity="0.12"/>
<rect y="304" width="18" height="19" fill="#98EC65" fill-opacity="0.12"/>
<rect y="131" width="18" height="18" fill="#5F5F5F" fill-opacity="0.12"/>
<rect width="18" height="19" fill="#F36888" fill-opacity="0.12"/>
<rect y="217" width="19" height="18" fill="#5F5F5F" fill-opacity="0.12"/>
<rect y="260" width="18" height="19" fill="#5F5F5F" fill-opacity="0.12"/>
<rect x="273" width="18" height="18" transform="rotate(90 273 0)" fill="#5F5F5F" fill-opacity="0.12"/>
<rect x="317" width="18" height="19" transform="rotate(90 317 0)" fill="#5F5F5F" fill-opacity="0.12"/>
<rect x="187" width="19" height="18" transform="rotate(90 187 0)" fill="#5F5F5F" fill-opacity="0.12"/>
<rect x="57" width="18" height="19" transform="rotate(90 57 0)" fill="#5F5F5F" fill-opacity="0.12"/>
<rect x="230" width="18" height="18" transform="rotate(90 230 0)" fill="#5F5F5F" fill-opacity="0.12"/>
<rect x="361" width="18" height="19" transform="rotate(90 361 0)" fill="#98EC65" fill-opacity="0.12"/>
<rect x="144" width="19" height="18" transform="rotate(90 144 0)" fill="#5F5F5F" fill-opacity="0.12"/>
<rect x="101" width="18" height="19" transform="rotate(90 101 0)" fill="#5F5F5F" fill-opacity="0.12"/>
</svg>
