<svg width="323" height="361" viewBox="0 0 323 361" fill="none" xmlns="http://www.w3.org/2000/svg">
<rect x="235" width="18" height="18" transform="rotate(90 235 0)" fill="#5F5F5F" fill-opacity="0.12"/>
<rect x="279" width="18" height="19" transform="rotate(90 279 0)" fill="#5F5F5F" fill-opacity="0.12"/>
<rect x="149" width="19" height="18" transform="rotate(90 149 0)" fill="#5F5F5F" fill-opacity="0.12"/>
<rect x="19" width="18" height="19" transform="rotate(90 19 0)" fill="#98EC65" fill-opacity="0.12"/>
<rect x="192" width="18" height="18" transform="rotate(90 192 0)" fill="#5F5F5F" fill-opacity="0.12"/>
<rect x="323" width="18" height="19" transform="rotate(90 323 0)" fill="#F36888" fill-opacity="0.12"/>
<rect x="106" width="19" height="18" transform="rotate(90 106 0)" fill="#5F5F5F" fill-opacity="0.12"/>
<rect x="63" width="18" height="19" transform="rotate(90 63 0)" fill="#5F5F5F" fill-opacity="0.12"/>
<rect x="323" y="273" width="18" height="18" transform="rotate(-180 323 273)" fill="#5F5F5F" fill-opacity="0.12"/>
<rect x="323" y="317" width="18" height="19" transform="rotate(-180 323 317)" fill="#5F5F5F" fill-opacity="0.12"/>
<rect x="323" y="187" width="19" height="18" transform="rotate(-180 323 187)" fill="#5F5F5F" fill-opacity="0.12"/>
<rect x="323" y="57" width="18" height="19" transform="rotate(-180 323 57)" fill="#5F5F5F" fill-opacity="0.12"/>
<rect x="323" y="230" width="18" height="18" transform="rotate(-180 323 230)" fill="#5F5F5F" fill-opacity="0.12"/>
<rect x="323" y="361" width="18" height="19" transform="rotate(-180 323 361)" fill="#98EC65" fill-opacity="0.12"/>
<rect x="323" y="144" width="19" height="18" transform="rotate(-180 323 144)" fill="#5F5F5F" fill-opacity="0.12"/>
<rect x="323" y="101" width="18" height="19" transform="rotate(-180 323 101)" fill="#5F5F5F" fill-opacity="0.12"/>
</svg>
