<svg width="204" height="393" viewBox="0 0 204 393" fill="none" xmlns="http://www.w3.org/2000/svg">
<rect x="10" y="196" width="18" height="19" fill="#5F5F5F" fill-opacity="0.12"/>
<rect x="28" y="66" width="19" height="18" transform="rotate(90 28 66)" fill="#5F5F5F" fill-opacity="0.12"/>
<rect x="28" y="110" width="18" height="18" transform="rotate(90 28 110)" fill="#5F5F5F" fill-opacity="0.12"/>
<rect x="10" y="153" width="18" height="18" fill="#5F5F5F" fill-opacity="0.12"/>
<rect x="28" y="244" width="19" height="18" transform="rotate(90 28 244)" fill="#5F5F5F" fill-opacity="0.12"/>
<rect x="28" y="288" width="18" height="18" transform="rotate(90 28 288)" fill="#5F5F5F" fill-opacity="0.12"/>
<rect x="10" y="331" width="18" height="18" fill="#5F5F5F" fill-opacity="0.12"/>
<rect x="55" y="374" width="19" height="18" fill="#5F5F5F" fill-opacity="0.12"/>
<rect x="99" y="374" width="18" height="18" fill="#5F5F5F" fill-opacity="0.12"/>
<rect x="142" y="392" width="18" height="18" transform="rotate(-90 142 392)" fill="#5F5F5F" fill-opacity="0.12"/>
<rect x="10" y="374" width="18" height="19" fill="#5F5F5F" fill-opacity="0.12"/>
<rect x="185" y="392" width="18" height="19" transform="rotate(-90 185 392)" fill="#5F5F5F" fill-opacity="0.12"/>
<rect x="36.5" y="0.5" width="36" height="36" transform="rotate(90 36.5 0.5)" stroke="#98EC65"/>
</svg>
