<svg width="123" height="145" viewBox="0 0 123 145" fill="none" xmlns="http://www.w3.org/2000/svg">
<rect width="15" height="15" transform="matrix(-1 -8.74228e-08 -8.74228e-08 1 51 72)" fill="#5F5F5F" fill-opacity="0.12"/>
<rect width="16" height="16" transform="matrix(-1 -8.74228e-08 -8.74228e-08 1 123 107)" fill="#5F5F5F" fill-opacity="0.12"/>
<rect width="15" height="15" transform="matrix(-1 -8.74228e-08 -8.74228e-08 1 87 72)" fill="#5F5F5F" fill-opacity="0.12"/>
<rect width="15" height="16" transform="matrix(-1 -8.74228e-08 -8.74228e-08 1 87 107)" fill="#5F5F5F" fill-opacity="0.12"/>
<rect width="16" height="15" transform="matrix(-1 -8.74228e-08 -8.74228e-08 1 123 72)" fill="#5F5F5F" fill-opacity="0.12"/>
<rect width="15" height="15" transform="matrix(-4.37114e-08 1 1 4.37114e-08 36 36)" fill="#5F5F5F" fill-opacity="0.12"/>
<rect width="15" height="16" transform="matrix(-4.37114e-08 1 1 4.37114e-08 0 36)" fill="#5F5F5F" fill-opacity="0.12"/>
<rect width="16" height="15" transform="matrix(-4.37114e-08 1 1 4.37114e-08 72 0)" fill="#5F5F5F" fill-opacity="0.12"/>
<rect width="15" height="16" transform="matrix(-4.37114e-08 1 1 4.37114e-08 107 36)" fill="#5F5F5F" fill-opacity="0.12"/>
<rect width="15" height="15" transform="matrix(-4.37114e-08 1 1 4.37114e-08 72 36)" fill="#5F5F5F" fill-opacity="0.12"/>
<rect width="15" height="16" transform="matrix(-1 -8.74228e-08 -8.74228e-08 1 87 107)" fill="#98EC65" fill-opacity="0.12"/>
</svg>
